<svg id="Capa_1" enable-background="new 0 0 512.003 512.003" height="512" viewBox="0 0 512.003 512.003" width="512" xmlns="http://www.w3.org/2000/svg"><g><path d="m75.002 362h-60c-8.284 0-15 6.716-15 15v120c0 8.284 6.716 15 15 15s15-6.716 15-15v-45h15c8.284 0 15-6.716 15-15s-6.716-15-15-15h-15v-30h45c8.284 0 15-6.716 15-15s-6.716-15-15-15z"/><path d="m166.002 362c-24.813 0-45 20.187-45 45v60c0 24.813 20.187 45 45 45s45-20.187 45-45v-60c0-24.813-20.187-45-45-45zm15 105c0 8.271-6.729 15-15 15s-15-6.729-15-15v-60c0-8.271 6.729-15 15-15s15 6.729 15 15z"/><path d="m331.002 407c0-24.813-20.187-45-45-45h-30c-8.284 0-15 6.716-15 15v120c0 8.284 6.716 15 15 15s15-6.716 15-15v-45h5.729l25.854 51.708c3.698 7.397 12.702 10.419 20.124 6.708 7.41-3.705 10.413-12.715 6.708-20.125l-21.892-43.784c13.976-7.643 23.477-22.486 23.477-39.507zm-60 15v-30h15c8.271 0 15 6.729 15 15s-6.729 15-15 15z"/><path d="m497.002 362c-8.284 0-15 6.716-15 15v90c0 8.271-6.729 15-15 15s-15-6.729-15-15v-90c0-8.284-6.716-15-15-15s-15 6.716-15 15v90c0 24.813 20.187 45 45 45s45-20.187 45-45v-90c0-8.284-6.716-15-15-15z"/><path d="m338.502 0c-41.037 0-67.893 23.024-82.5 40.777-14.608-17.753-41.463-40.777-82.5-40.777-58.203 0-97.5 53.684-97.5 114.621 0 36.572 13.935 73.01 41.417 108.3 29.248 37.558 73.418 72.947 131.283 105.183 2.269 1.264 4.784 1.896 7.3 1.896s5.031-.632 7.3-1.896c57.865-32.236 102.035-67.625 131.283-105.183 27.482-35.29 41.417-71.728 41.417-108.3 0-60.83-39.215-114.621-97.5-114.621zm-82.5 297.767c-96.817-55.606-150-120.446-150-183.146 0-48.242 29.019-84.621 67.5-84.621 46.335 0 68.096 42.238 69.056 44.153 2.529 5.111 7.725 8.376 13.431 8.376 5.724 0 10.935-3.229 13.454-8.368.903-1.803 22.66-44.16 69.06-44.16 38.481 0 67.5 36.379 67.5 84.621-.001 62.699-53.184 127.539-150.001 183.145z"/><circle cx="316.002" cy="135" r="15"/><circle cx="196.002" cy="135" r="15"/><path d="m275.395 184.394c-5.181 5.18-12.067 8.033-19.394 8.033-7.326 0-14.213-2.853-19.394-8.033-5.857-5.859-15.355-5.857-21.213 0-5.858 5.858-5.858 15.355 0 21.213 10.846 10.846 25.268 16.82 40.606 16.82s29.761-5.974 40.606-16.82c5.858-5.858 5.858-15.355 0-21.213-5.855-5.859-15.353-5.858-21.211 0z"/></g></svg>